<svg width="200" height="200" viewBox="0 0 200 200" xmlns="http://www.w3.org/2000/svg">
  <!-- Cat body -->
  <ellipse cx="100" cy="130" rx="45" ry="30" fill="#FF8C42" stroke="#E67539" stroke-width="2"/>

  <!-- Cat head -->
  <circle cx="100" cy="80" r="35" fill="#FF8C42" stroke="#E67539" stroke-width="2"/>

  <!-- Cat ears -->
  <ellipse cx="85" cy="55" rx="8" ry="15" fill="#FF8C42" stroke="#E67539" stroke-width="2" transform="rotate(-20 85 55)"/>
  <ellipse cx="115" cy="55" rx="8" ry="15" fill="#FF8C42" stroke="#E67539" stroke-width="2" transform="rotate(20 115 55)"/>

  <!-- Inner ears -->
  <ellipse cx="85" cy="58" rx="4" ry="8" fill="#FFB366" transform="rotate(-20 85 58)"/>
  <ellipse cx="115" cy="58" rx="4" ry="8" fill="#FFB366" transform="rotate(20 115 58)"/>

  <!-- Cat eyes -->
  <ellipse cx="92" cy="75" rx="6" ry="8" fill="#2C3E50"/>
  <ellipse cx="108" cy="75" rx="6" ry="8" fill="#2C3E50"/>

  <!-- Eye shine -->
  <ellipse cx="94" cy="73" rx="2" ry="3" fill="#ECF0F1"/>
  <ellipse cx="110" cy="73" rx="2" ry="3" fill="#ECF0F1"/>

  <!-- Cat nose -->
  <path d="M100 85 L97 88 L103 88 Z" fill="#E74C3C"/>

  <!-- Cat mouth -->
  <path d="M100 88 Q95 92 90 90" stroke="#2C3E50" stroke-width="1.5" fill="none"/>
  <path d="M100 88 Q105 92 110 90" stroke="#2C3E50" stroke-width="1.5" fill="none"/>

  <!-- Cat whiskers -->
  <line x1="70" y1="78" x2="85" y2="80" stroke="#2C3E50" stroke-width="1"/>
  <line x1="70" y1="85" x2="85" y2="85" stroke="#2C3E50" stroke-width="1"/>
  <line x1="115" y1="80" x2="130" y2="78" stroke="#2C3E50" stroke-width="1"/>
  <line x1="115" y1="85" x2="130" y2="85" stroke="#2C3E50" stroke-width="1"/>

  <!-- Cat front paws -->
  <ellipse cx="80" cy="155" rx="8" ry="12" fill="#FF8C42" stroke="#E67539" stroke-width="2"/>
  <ellipse cx="120" cy="155" rx="8" ry="12" fill="#FF8C42" stroke="#E67539" stroke-width="2"/>

  <!-- Cat tail -->
  <path d="M145 130 Q165 120 160 100 Q155 80 170 85" stroke="#E67539" stroke-width="15" fill="none" stroke-linecap="round"/>

  <!-- Cat stripes -->
  <path d="M75 65 Q100 60 125 65" stroke="#E67539" stroke-width="3" fill="none"/>
  <path d="M70 120 Q100 115 130 120" stroke="#E67539" stroke-width="3" fill="none"/>
  <path d="M75 140 Q100 135 125 140" stroke="#E67539" stroke-width="3" fill="none"/>
</svg>